<svg id="close" width="15" height="15" viewBox="0 0 15 15" xmlns="http://www.w3.org/2000/svg">
    <path
        d="M9.752 7.36643L14.4653 2.65176C14.5927 2.52876 14.6943 2.38164 14.7641 2.21897C14.834 2.05629 14.8708 1.88133 14.8723 1.70429C14.8739 1.52726 14.8401 1.35168 14.7731 1.18782C14.7061 1.02396 14.6071 0.87509 14.4819 0.749899C14.3567 0.624709 14.2078 0.525705 14.0439 0.458664C13.8801 0.391623 13.7045 0.357887 13.5275 0.359425C13.3504 0.360964 13.1755 0.397745 13.0128 0.467624C12.8501 0.537503 12.703 0.639079 12.58 0.766426L7.86534 5.47976L3.152 0.766426C3.02901 0.639079 2.88188 0.537503 2.71921 0.467624C2.55654 0.397745 2.38158 0.360964 2.20454 0.359425C2.0275 0.357887 1.85193 0.391623 1.68806 0.458664C1.5242 0.525705 1.37533 0.624709 1.25014 0.749899C1.12495 0.87509 1.02595 1.02396 0.958908 1.18782C0.891867 1.35168 0.858131 1.52726 0.859669 1.70429C0.861208 1.88133 0.89799 2.05629 0.967868 2.21897C1.03775 2.38164 1.13932 2.52876 1.26667 2.65176L5.98 7.36509L1.26667 12.0798C1.13932 12.2028 1.03775 12.3499 0.967868 12.5126C0.89799 12.6752 0.861208 12.8502 0.859669 13.0272C0.858131 13.2043 0.891867 13.3798 0.958908 13.5437C1.02595 13.7076 1.12495 13.8564 1.25014 13.9816C1.37533 14.1068 1.5242 14.2058 1.68806 14.2729C1.85193 14.3399 2.0275 14.3736 2.20454 14.3721C2.38158 14.3706 2.55654 14.3338 2.71921 14.2639C2.88188 14.194 3.02901 14.0924 3.152 13.9651L7.86534 9.25176L12.58 13.9651C12.703 14.0924 12.8501 14.194 13.0128 14.2639C13.1755 14.3338 13.3504 14.3706 13.5275 14.3721C13.7045 14.3736 13.8801 14.3399 14.0439 14.2729C14.2078 14.2058 14.3567 14.1068 14.4819 13.9816C14.6071 13.8564 14.7061 13.7076 14.7731 13.5437C14.8401 13.3798 14.8739 13.2043 14.8723 13.0272C14.8708 12.8502 14.834 12.6752 14.7641 12.5126C14.6943 12.3499 14.5927 12.2028 14.4653 12.0798L9.752 7.36643Z"
    />
  </svg>
